<svg width="24" height="24" viewBox="0 0 24 24" fill="none" xmlns="http://www.w3.org/2000/svg">
<path d="M12 1.5C12.7956 1.5 13.5587 1.81607 14.1213 2.37868C14.6839 2.94129 15 3.70435 15 4.5V7.5H9V4.5C9 3.70435 9.31607 2.94129 9.87868 2.37868C10.4413 1.81607 11.2044 1.5 12 1.5ZM16.5 7.5V4.5C16.5 3.30653 16.0259 2.16193 15.182 1.31802C14.3381 0.474106 13.1935 0 12 0C10.8065 0 9.66193 0.474106 8.81802 1.31802C7.97411 2.16193 7.5 3.30653 7.5 4.5V7.5H5.04C4.50131 7.50012 3.98054 7.6935 3.57234 8.045C3.16413 8.39651 2.89558 8.8828 2.8155 9.4155L1.275 19.695C1.19518 20.2284 1.23135 20.7727 1.38104 21.2908C1.53072 21.8089 1.7904 22.2887 2.14237 22.6973C2.49433 23.1059 2.9303 23.4338 3.42052 23.6587C3.91074 23.8835 4.44369 23.9999 4.983 24H19.0155C19.5549 24.0001 20.0881 23.8838 20.5785 23.6591C21.0689 23.4344 21.505 23.1065 21.8571 22.6979C22.2093 22.2892 22.4691 21.8094 22.6189 21.2912C22.7686 20.7729 22.8048 20.2285 22.725 19.695L21.183 9.4155C21.103 8.88305 20.8346 8.39696 20.4267 8.04549C20.0188 7.69402 19.4984 7.50048 18.96 7.5H16.5ZM15 9V11.25C15 11.4489 15.079 11.6397 15.2197 11.7803C15.3603 11.921 15.5511 12 15.75 12C15.9489 12 16.1397 11.921 16.2803 11.7803C16.421 11.6397 16.5 11.4489 16.5 11.25V9H18.9585C19.1381 9.00018 19.3116 9.06476 19.4476 9.18202C19.5835 9.29928 19.6729 9.46143 19.6995 9.639L21.2415 19.9155C21.2896 20.2356 21.2681 20.5623 21.1784 20.8734C21.0887 21.1844 20.933 21.4724 20.7218 21.7178C20.5107 21.9631 20.249 22.16 19.9548 22.295C19.6606 22.43 19.3407 22.4999 19.017 22.5H4.983C4.65929 22.4999 4.33941 22.43 4.04519 22.295C3.75097 22.16 3.48935 21.9631 3.27818 21.7178C3.06701 21.4724 2.91126 21.1844 2.82158 20.8734C2.73189 20.5623 2.71038 20.2356 2.7585 19.9155L4.3005 9.639C4.32703 9.46168 4.41621 9.29973 4.55188 9.18251C4.68754 9.06528 4.86071 9.00054 5.04 9H7.5V11.25C7.5 11.4489 7.57902 11.6397 7.71967 11.7803C7.86032 11.921 8.05109 12 8.25 12C8.44891 12 8.63968 11.921 8.78033 11.7803C8.92098 11.6397 9 11.4489 9 11.25V9H15Z" fill="#1A1A1A"/>
</svg>
